<?xml version="1.0" standalone="no"?>
<!DOCTYPE svg PUBLIC "-//W3C//DTD SVG 20010904//EN"
 "http://www.w3.org/TR/2001/REC-SVG-20010904/DTD/svg10.dtd">
<svg version="1.0" xmlns="http://www.w3.org/2000/svg"
 width="784.000000pt" height="784.000000pt" viewBox="0 0 784.000000 784.000000"
 preserveAspectRatio="xMidYMid meet">
<metadata>
Created by potrace 1.14, written by Peter Selinger 2001-2017
</metadata>
<g transform="translate(0.000000,784.000000) scale(0.100000,-0.100000)"
fill="#000000" stroke="none">
<path d="M7680 7069 c-58 -62 -123 -131 -145 -155 -37 -40 -240 -255 -330
-349 -22 -23 -94 -100 -160 -170 -66 -70 -145 -154 -175 -186 -30 -31 -107
-112 -170 -180 -63 -67 -143 -151 -177 -187 -35 -35 -63 -66 -63 -67 0 -2 -30
-35 -67 -73 -38 -38 -101 -105 -142 -148 -40 -44 -129 -137 -196 -209 -68 -71
-143 -152 -168 -178 -25 -27 -103 -110 -174 -184 -70 -75 -141 -150 -158 -168
-16 -17 -97 -103 -180 -190 -82 -88 -162 -172 -177 -188 -61 -65 -285 -303
-323 -343 -22 -22 -74 -77 -115 -121 -41 -44 -136 -145 -211 -224 -75 -79
-151 -160 -170 -180 -85 -91 -278 -296 -319 -338 -25 -26 -61 -65 -81 -86 -55
-62 -64 -68 -80 -52 -8 8 -93 97 -189 197 -96 101 -195 204 -220 230 -95 99
-371 388 -430 450 -34 36 -134 141 -223 234 -89 92 -182 190 -207 216 -25 26
-124 129 -220 229 -96 101 -197 206 -224 234 -27 29 -126 133 -221 232 -95 99
-194 203 -220 230 -26 28 -119 124 -206 215 -87 91 -193 202 -236 247 -97 101
-372 390 -433 453 -208 217 -416 434 -459 480 -29 30 -130 135 -224 234 -95
98 -175 183 -179 190 -12 17 -10 -1 8 -95 17 -90 17 -89 27 -134 4 -16 9 -41
11 -55 14 -80 136 -509 166 -585 4 -11 13 -36 20 -55 7 -19 16 -44 20 -55 5
-11 20 -51 34 -90 36 -101 94 -243 158 -382 12 -27 22 -50 22 -53 2 -9 132
-264 166 -325 72 -129 198 -337 289 -475 53 -80 99 -152 102 -160 4 -8 16 -25
28 -37 12 -12 21 -25 21 -28 0 -5 69 -105 80 -115 3 -3 10 -12 15 -21 22 -37
140 -195 162 -218 13 -13 23 -27 23 -32 0 -4 6 -14 13 -21 7 -7 47 -56 88
-108 308 -387 639 -738 1113 -1175 6 -6 67 -59 136 -119 69 -60 139 -121 155
-135 17 -15 77 -65 135 -111 58 -47 110 -90 115 -96 6 -5 36 -30 68 -53 32
-24 60 -47 62 -51 3 -4 -12 -25 -31 -46 -60 -64 -286 -304 -329 -349 -43 -44
-265 -280 -335 -355 -23 -25 -97 -103 -164 -175 -68 -71 -156 -165 -197 -209
-41 -43 -104 -110 -141 -148 -38 -39 -68 -71 -68 -73 0 -1 -47 -51 -104 -111
-170 -179 -255 -269 -253 -271 1 -1 31 7 67 17 36 10 124 35 195 55 72 20 137
39 145 42 8 4 17 7 20 7 29 5 325 105 378 127 23 10 42 16 42 14 0 -2 35 12
78 31 42 20 78 35 79 35 4 -1 217 95 243 109 8 5 49 26 90 47 246 125 644 375
982 616 l108 76 85 -52 c48 -29 98 -60 113 -70 15 -9 35 -20 45 -23 9 -4 17
-9 17 -13 0 -4 16 -13 35 -21 19 -8 35 -17 35 -21 0 -4 8 -9 18 -13 9 -3 46
-23 82 -45 36 -22 81 -48 100 -57 19 -10 37 -21 40 -24 5 -6 124 -75 170 -97
14 -7 39 -21 55 -31 35 -22 122 -69 255 -140 52 -28 129 -69 170 -92 91 -49
927 -465 955 -474 14 -5 7 6 -20 35 -22 23 -71 74 -110 114 -38 40 -135 142
-215 226 -80 84 -170 178 -200 210 -71 73 -371 387 -430 449 -25 26 -124 129
-220 230 -96 101 -213 224 -260 273 -47 49 -95 98 -106 109 l-22 20 282 281
c155 155 320 324 366 376 47 52 99 108 115 126 99 108 280 323 425 505 50 63
96 122 103 130 22 27 152 204 177 240 13 19 27 37 30 40 3 3 56 82 118 175
141 213 122 185 189 290 31 50 60 93 65 96 6 3 8 8 6 10 -1 2 12 29 31 59 19
30 33 57 32 59 -2 2 1 7 6 10 11 8 273 455 273 466 0 1 25 46 55 99 30 53 51
96 47 96 -4 0 -2 4 3 8 6 4 23 32 39 62 62 118 256 510 296 595 23 50 54 117
70 150 15 33 39 85 53 115 41 91 69 154 77 175 5 11 21 47 36 80 27 61 46 106
49 115 1 3 11 27 23 53 12 27 22 51 22 54 0 3 9 24 20 47 25 52 150 345 150
351 0 16 -27 -8 -120 -106z"/>
</g>
</svg>
